<svg width="46" height="55" viewBox="0 0 46 55" fill="none" xmlns="http://www.w3.org/2000/svg">
<path id="Vector" d="M45.9999 16.5V52.2308C46.0023 52.5919 45.9385 52.95 45.8123 53.2846C45.686 53.6192 45.4997 53.9238 45.2641 54.181C45.0285 54.4381 44.748 54.6428 44.4389 54.7833C44.1297 54.9239 43.7979 54.9975 43.4623 55H2.53766C1.86508 55 1.22 54.7127 0.744167 54.2012C0.268337 53.6896 0.000677329 52.9958 0 52.272V2.728C0 1.25125 1.14744 0 2.56066 0H30.659L45.9999 16.5ZM40.8888 19.25H28.1111V5.5H5.1111V49.5H40.8888V19.25Z" fill="black" fill-opacity="0.05"/>
</svg>
