<svg width="53" height="53" viewBox="0 0 53 53" fill="none" xmlns="http://www.w3.org/2000/svg">
<g id="Emergency Exit">
<path id="icon" fill-rule="evenodd" clip-rule="evenodd" d="M34.702 5.54957C34.702 2.62042 32.3275 0.24588 29.3983 0.24588H5.3527C2.42352 0.24588 0.0489426 2.62042 0.0489426 5.54957V46.7707C0.0489426 49.6999 2.42352 52.0745 5.3527 52.0745H23.6727C23.3821 51.2766 23.2237 50.4155 23.2237 49.5171V42.7234C23.2237 42.4136 23.2365 42.1053 23.2618 41.7988C22.6105 41.9162 21.9458 41.9763 21.2749 41.9763H16.1498C12.022 41.9763 8.67577 38.6297 8.67577 34.5019C8.67577 31.1015 10.9465 28.2316 14.0539 27.3255C11.951 25.3613 10.6359 22.5636 10.6359 19.4588C10.6359 13.5151 15.4543 8.69688 21.398 8.69688C26.2203 8.69688 30.3019 11.8687 31.6702 16.2399C32.6335 15.8311 33.6538 15.5573 34.702 15.4304V5.54957ZM27.4884 19.4588C27.4884 16.0951 24.7616 13.3683 21.398 13.3683C18.0343 13.3683 15.3075 16.0951 15.3075 19.4588C15.3075 22.8224 18.0343 25.5492 21.398 25.5492C24.7616 25.5492 27.4884 22.8224 27.4884 19.4588ZM27.1815 25.516L27.1723 25.5252L21.6023 31.0952C21.5147 31.1828 21.3959 31.232 21.272 31.232L16.1469 31.232C14.3409 31.2319 12.8771 32.6959 12.8771 34.5019C12.8771 36.3079 14.3409 37.772 16.1468 37.772H21.2719C23.1304 37.772 24.9127 37.0338 26.2268 35.7197L29.4937 32.4528L32.1449 35.104L29.4803 37.7687C28.1662 39.0827 27.428 40.8649 27.428 42.7234V48.5821C27.428 50.3879 28.892 51.8521 30.698 51.8521C32.504 51.8521 33.968 50.3879 33.968 48.5821V42.7234C33.968 42.5997 34.0172 42.4808 34.1048 42.393L36.8152 39.6828C38.0269 40.6026 39.5133 41.1086 41.0519 41.1086H48.5828C50.3888 41.1086 51.8528 39.6443 51.8528 37.8386C51.8528 36.0325 50.3888 34.5685 48.5828 34.5685H41.0519C40.928 34.5685 40.8092 34.5193 40.7215 34.4317L34.1182 27.8283L35.7162 26.2303C35.8038 26.1427 35.9226 26.0935 36.0465 26.0935L42.8408 26.0934C44.6468 26.0934 46.1108 24.6293 46.1108 22.8234C46.1108 21.0174 44.6467 19.5534 42.8407 19.5534L36.0464 19.5535C34.1881 19.5535 32.4058 20.2917 31.0917 21.6058L27.1907 25.5069L27.1815 25.516Z" fill="black"/>
</g>
</svg>
