<svg width="53" height="53" viewBox="0 0 53 53" fill="none" xmlns="http://www.w3.org/2000/svg">
<g id="&#240;&#159;&#166;&#134; icon &#34;search&#34;">
<path id="Vector" d="M33.79 30.52H32.0678L31.4574 29.9314C34.0734 26.8794 35.425 22.7156 34.6838 18.2902C33.6592 12.2298 28.6016 7.3902 22.4976 6.649C13.2762 5.5154 5.5154 13.2762 6.649 22.4976C7.3902 28.6016 12.2298 33.6592 18.2902 34.6838C22.7156 35.425 26.8794 34.0734 29.9314 31.4574L30.52 32.0678V33.79L39.785 43.055C40.6788 43.9488 42.1394 43.9488 43.0332 43.055C43.927 42.1612 43.927 40.7006 43.0332 39.8068L33.79 30.52ZM20.71 30.52C15.2818 30.52 10.9 26.1382 10.9 20.71C10.9 15.2818 15.2818 10.9 20.71 10.9C26.1382 10.9 30.52 15.2818 30.52 20.71C30.52 26.1382 26.1382 30.52 20.71 30.52Z" fill="black"/>
</g>
</svg>
