<svg width="59" height="69" viewBox="0 0 59 69" fill="none" xmlns="http://www.w3.org/2000/svg">
<path id="Vector" d="M0.540786 35.8505L6.11281 14.0205L30.7834 0.571586C32.022 -0.103612 33.6306 0.444565 34.3375 1.74117L58.0511 45.2414C58.397 45.8772 58.4941 46.6145 58.3211 47.2914C58.1482 47.9683 57.7193 48.5293 57.1288 48.8512L21.1965 68.4393C20.9006 68.5978 20.574 68.692 20.2353 68.7165C19.8966 68.7411 19.5524 68.6956 19.2224 68.5826C18.8924 68.4696 18.5831 68.2914 18.3121 68.058C18.0411 67.8246 17.8137 67.5407 17.6429 67.2225L0.540786 35.8505ZM10.9824 17.6301L17.5637 29.7027L6.34465 35.8187L20.8235 62.3785L52.2367 45.2539L31.1766 6.62139L10.9824 17.6301Z" fill="black" fill-opacity="0.05"/>
</svg>
